#!OML:ASF F:\VICON\USERDATA\INSTALL\rory3\rory3.ASF
:FULLY-SPECIFIED
:DEGREES
59
root 3.80768 17.6346 3.30421 18.6463 -18.1885 -1.69885
lowerback -8.11257 3.87786 3.04242
upperback -11.9529 5.01883 -0.121838
thorax -7.8271 2.21824 -1.74246
lowerneck -4.78244 14.9718 10.9277
upperneck 20.8969 18.5006 4.61993
head 7.88377 10.0609 1.44142
rclavicle -7.30534e-014 -3.99557e-014
rhumerus 8.57305 -22.007 6.15374
rradius 118.769
rwrist -57.8759
rhand -7.0608 -46.3088
rfingers 7.12502
rthumb 18.8123 -75.4191
lclavicle -7.30534e-014 -3.99557e-014
lhumerus 27.5501 26.6664 -18.1553
lradius 33.4434
lwrist 33.6716
lhand -28.9621 -24.9116
lfingers 7.12502
lthumb -2.31515 5.05554
rfemur -3.23047 3.10492 -3.49814
rtibia 4.0764
rfoot -34.1514 -20.1271
rtoes 53.5672
lfemur -22.4899 -0.566593 -25.7432
ltibia 18.0571
lfoot -11.8392 12.7306
ltoes 10.9163
60
root 3.81842 17.6323 3.30148 18.7155 -18.0469 -1.70635
lowerback -8.20481 3.85755 3.14558
upperback -11.9008 4.98377 -0.128051
thorax -7.70971 2.19548 -1.79736
lowerneck -4.76488 14.8807 10.9211
upperneck 20.947 18.4345 4.33795
head 7.92197 10.0055 1.35153
rclavicle -7.34509e-014 -3.57812e-014
rhumerus 8.64332 -22.2248 6.00762
rradius 118.8
rwrist -58.0509
rhand -7.00647 -46.3967
rfingers 7.12502
rthumb 18.8646 -75.5019
lclavicle -7.34509e-014 -3.57812e-014
lhumerus 27.8819 27.4033 -17.3929
lradius 33.3335
lwrist 32.9559
lhand -28.6884 -25.608
lfingers 7.12502
lthumb -2.05072 4.36193
rfemur -3.36828 2.95286 -3.491
rtibia 4.32985
rfoot -34.3221 -19.7852
rtoes 53.6789
lfemur -22.6511 -0.542987 -25.7823
ltibia 18.1988
lfoot -11.9991 12.6037
ltoes 11.0758
61
root 3.82598 17.6305 3.29012 18.7313 -17.9942 -1.75036
lowerback -8.17606 3.84595 3.20174
upperback -11.8474 4.96947 -0.091681
thorax -7.66591 2.18729 -1.79003
lowerneck -4.66875 14.7535 10.8945
upperneck 20.978 18.328 4.07005
head 7.93515 9.93088 1.2555
rclavicle -5.43179e-014 -8.74653e-015
rhumerus 8.67107 -22.2416 6.01261
rradius 118.862
rwrist -58.1445
rhand -7.12957 -46.395
rfingers 7.12502
rthumb 18.7462 -75.5117
lclavicle -5.43179e-014 -8.74653e-015
lhumerus 27.591 27.2402 -17.5133
lradius 33.6171
lwrist 33.4894
lhand -28.1769 -25.8416
lfingers 7.12502
lthumb -1.55676 4.13246
rfemur -3.45046 2.91671 -3.45027
rtibia 4.43543
rfoot -34.6161 -19.424
rtoes 53.9615
lfemur -22.8021 -0.369034 -25.7904
ltibia 18.3546
lfoot -12.0201 12.4456
ltoes 10.7982
62
root 3.83002 17.6293 3.28103 18.626 -18.066 -1.78369
lowerback -8.07136 3.8437 3.20748
upperback -11.7202 4.97025 -0.0731485
thorax -7.58333 2.19151 -1.77552
lowerneck -4.67095 14.625 11.0191
upperneck 21.0546 18.2089 3.69749
head 8.00629 9.85116 1.12013
rclavicle 2.10215e-014 1.33186e-014
rhumerus 8.75279 -22.1698 5.87038
rradius 118.859
rwrist -58.0179
rhand -7.27696 -46.3171
rfingers 7.12502
rthumb 18.6044 -75.4474
lclavicle 2.10215e-014 1.33186e-014
lhumerus 27.0582 26.9085 -18.0263
lradius 34.0612
lwrist 34.6992
lhand -27.5826 -25.7105
lfingers 7.12502
lthumb -0.982812 4.26694
rfemur -3.60165 3.03552 -3.42238
rtibia 4.7461
rfoot -34.9654 -18.9111
rtoes 54.3185
lfemur -22.8077 -0.181002 -25.8053
ltibia 18.5182
lfoot -12.0759 12.3592
ltoes 10.6734
63
root 3.83611 17.6291 3.27747 18.5778 -18.1595 -1.88737
lowerback -8.02633 3.89506 3.29942
upperback -11.5863 5.03575 -0.0853753
thorax -7.44735 2.2213 -1.83441
lowerneck -4.97928 14.534 11.0103
upperneck 21.2998 18.0692 3.57358
head 8.1486 9.77476 1.10808
rclavicle 5.01931e-015 7.95139e-016
rhumerus 8.8579 -22.2262 5.61433
rradius 118.792
rwrist -57.7588
rhand -6.90094 -46.2016
rfingers 7.12502
rthumb 18.9661 -75.297
lclavicle 5.01931e-015 7.95139e-016
lhumerus 26.9864 27.0895 -17.9935
lradius 34.2045
lwrist 35.1947
lhand -26.8912 -25.7575
lfingers 7.12502
lthumb -0.314962 4.22203
rfemur -3.95186 3.17871 -3.33786
rtibia 5.34683
rfoot -35.0825 -18.3274
rtoes 54.242
lfemur -22.815 -0.0781797 -25.7489
ltibia 18.6689
lfoot -12.1745 12.372
ltoes 10.8049
64
root 3.84084 17.631 3.26512 18.5995 -18.1703 -2.06272
lowerback -7.76948 3.93063 3.40416
upperback -11.6119 5.09441 -0.0906314
thorax -7.6097 2.23797 -1.9159
lowerneck -5.1229 14.4354 11.0017
upperneck 21.4604 17.9187 3.55692
head 8.22353 9.70306 1.10817
rclavicle 3.59055e-014 8.34896e-015
rhumerus 8.94068 -22.1785 5.42078
rradius 118.722
rwrist -57.5713
rhand -6.2359 -46.1285
rfingers 7.12502
rthumb 19.6056 -75.1599
lclavicle 3.59055e-014 8.34896e-015
lhumerus 27.0625 27.0402 -17.9233
lradius 34.2963
lwrist 35.5345
lhand -27.5043 -25.7425
lfingers 7.12502
lthumb -0.907164 4.23529
rfemur -4.32089 3.25564 -3.11941
rtibia 5.92013
rfoot -35.2488 -17.8403
rtoes 53.779
lfemur -22.916 0.12815 -25.5972
ltibia 18.7811
lfoot -12.2137 12.2353
ltoes 10.827
65
root 3.8441 17.6313 3.25301 18.61 -18.2412 -2.15964
lowerback -7.49809 3.95716 3.42317
upperback -11.7366 5.14445 -0.117508
thorax -7.89675 2.2513 -1.97933
lowerneck -4.83243 14.292 11.107
upperneck 21.5195 17.7596 3.48244
head 8.20573 9.63261 1.03382
rclavicle -3.09359e-014 -4.77083e-015
rhumerus 8.99109 -21.9591 5.2055
rradius 118.72
rwrist -57.6812
rhand -6.28579 -46.2421
rfingers 7.12502
rthumb 19.5576 -75.2784
lclavicle -3.09359e-014 -4.77083e-015
lhumerus 27.0127 26.5852 -18.1038
lradius 34.5499
lwrist 36.2338
lhand -28.0403 -25.4088
lfingers 7.12502
lthumb -1.42482 4.56617
rfemur -4.67689 3.35843 -2.99264
rtibia 6.42372
rfoot -35.4021 -17.6398
rtoes 53.6001
lfemur -23.0026 0.302676 -25.5205
ltibia 18.8458
lfoot -12.2197 12.1708
ltoes 10.7167
66
root 3.85116 17.6281 3.25519 18.5918 -18.3401 -2.08201
lowerback -7.55091 3.97808 3.35935
upperback -11.7553 5.16763 -0.178622
thorax -7.88553 2.26505 -2.00502
lowerneck -4.50543 14.1614 11.2
upperneck 21.5726 17.6412 3.32901
head 8.18661 9.57348 0.937959
rclavicle -8.29181e-014 -3.53837e-014
rhumerus 9.02058 -21.8393 4.99193
rradius 118.759
rwrist -57.8246
rhand -6.98156 -46.4046
rfingers 7.12502
rthumb 18.8886 -75.5075
lclavicle -8.29181e-014 -3.53837e-014
lhumerus 26.966 26.4002 -18.1437
lradius 34.7115
lwrist 36.6179
lhand -27.3011 -25.1662
lfingers 7.12502
lthumb -0.710903 4.81238
rfemur -5.03815 3.41832 -3.11381
rtibia 6.93711
rfoot -34.863 -18.3418
rtoes 53.5303
lfemur -23.0037 0.181268 -25.6214
ltibia 18.8781
lfoot -12.251 12.3408
ltoes 10.9343
67
root 3.85987 17.6268 3.25299 18.504 -18.29 -1.95364
lowerback -7.53775 3.95573 3.29001
upperback -11.7517 5.13646 -0.243643
thorax -7.8897 2.25199 -2.0366
lowerneck -4.17547 14.0054 11.4217
upperneck 21.5531 17.5126 2.98521
head 8.1722 9.50071 0.763352
rclavicle -7.98866e-014 -2.68359e-014
rhumerus 9.0229 -21.7625 4.8932
rradius 118.804
rwrist -57.8198
rhand -7.33485 -46.3362
rfingers 7.12502
rthumb 18.5488 -75.4718
lclavicle -7.98866e-014 -2.68359e-014
lhumerus 26.7593 26.0355 -18.3934
lradius 34.9017
lwrist 37.0606
lhand -27.4235 -25.2708
lfingers 7.12502
lthumb -0.829098 4.70734
rfemur -5.26703 3.3548 -3.23186
rtibia 7.40901
rfoot -34.521 -19.442
rtoes 53.409
lfemur -22.9451 -0.0337982 -25.745
ltibia 18.8834
lfoot -12.2348 12.4285
ltoes 11.3767
68
root 3.86725 17.6277 3.24617 18.3814 -18.3179 -1.94567
lowerback -7.39025 3.99469 3.33527
upperback -11.7651 5.1917 -0.312003
thorax -7.97547 2.27022 -2.14398
lowerneck -3.81261 13.8386 11.649
upperneck 21.477 17.3723 2.6493
head 8.13124 9.42345 0.58353
rclavicle 4.51241e-014 -3.97569e-016
rhumerus 8.95456 -21.6385 4.88341
rradius 118.842
rwrist -57.8779
rhand -7.19918 -46.1159
rfingers 7.12502
rthumb 18.6792 -75.239
lclavicle 4.51241e-014 -3.97569e-016
lhumerus 26.7297 25.7831 -18.4838
lradius 35.02
lwrist 37.2407
lhand -27.9316 -25.3536
lfingers 7.12502
lthumb -1.31982 4.62206
rfemur -5.43061 3.42494 -3.23286
rtibia 7.84788
rfoot -34.7404 -20.9875
rtoes 52.8227
lfemur -22.8315 -0.161581 -25.7535
ltibia 18.885
lfoot -12.2218 12.5511
ltoes 11.6187
